<?xml version="1.0" encoding="UTF-8"?>
<svg xmlns="http://www.w3.org/2000/svg" xmlns:xlink="http://www.w3.org/1999/xlink" width="122pt" height="150pt" viewBox="0 0 122 150" version="1.1">
<g id="surface1">
<path style=" stroke:none;fill-rule:nonzero;fill:rgb(100%,100%,100%);fill-opacity:1;" d="M 0 0.316406 L 122 0.316406 L 122 149.683594 L 0 149.683594 Z M 0 0.316406 "/>
<path style=" stroke:none;fill-rule:nonzero;fill:rgb(0%,22.352941%,41.960784%);fill-opacity:1;" d="M 12.15625 93.335938 L 56.375 93.335938 L 56.375 137.53125 L 12.15625 137.53125 Z M 12.15625 93.335938 "/>
<path style=" stroke:none;fill-rule:nonzero;fill:rgb(0%,35.686275%,63.529412%);fill-opacity:1;" d="M 12.15625 39.996094 L 56.375 39.996094 L 56.375 84.195312 L 12.15625 84.195312 Z M 12.15625 39.996094 "/>
<path style=" stroke:none;fill-rule:nonzero;fill:rgb(92.941176%,10.980392%,14.117647%);fill-opacity:1;" d="M 34.320312 41.074219 C 22.808594 41.074219 13.339844 50.429688 13.339844 62.042969 C 13.339844 73.546875 22.699219 83.011719 34.320312 83.011719 C 45.832031 83.011719 55.296875 73.65625 55.296875 62.042969 C 55.191406 50.535156 45.832031 41.074219 34.320312 41.074219 Z M 34.320312 41.074219 "/>
<path style=" stroke:none;fill-rule:nonzero;fill:rgb(100%,94.901961%,0%);fill-opacity:1;" d="M 34.320312 42.472656 C 23.453125 42.472656 14.738281 51.289062 14.738281 62.042969 C 14.738281 72.902344 23.5625 81.613281 34.320312 81.613281 C 45.183594 81.613281 53.898438 72.796875 53.898438 62.042969 C 53.898438 51.179688 45.183594 42.472656 34.320312 42.472656 Z M 34.320312 42.472656 "/>
<path style=" stroke:none;fill-rule:nonzero;fill:rgb(0%,35.686275%,63.529412%);fill-opacity:1;" d="M 42.925781 58.386719 L 42.925781 59.785156 L 44 59.785156 L 44 64.300781 L 42.925781 64.300781 L 42.925781 65.699219 L 51.640625 65.699219 L 51.640625 62.042969 L 48.089844 64.085938 L 48.089844 59.785156 L 49.058594 59.785156 L 49.058594 58.386719 Z M 42.925781 58.386719 "/>
<path style=" stroke:none;fill-rule:nonzero;fill:rgb(0%,35.686275%,63.529412%);fill-opacity:1;" d="M 38.621094 63.441406 L 38.300781 63.441406 L 38.300781 60.644531 L 38.515625 60.644531 C 39.914062 60.644531 39.914062 63.441406 38.621094 63.441406 Z M 39.484375 58.386719 L 33.566406 58.386719 L 33.566406 59.675781 L 34.640625 59.675781 L 34.640625 64.300781 L 33.566406 64.300781 L 33.566406 65.589844 L 39.484375 65.589844 C 43.785156 65.699219 43.894531 58.386719 39.484375 58.386719 Z M 39.484375 58.386719 "/>
<path style=" stroke:none;fill-rule:nonzero;fill:rgb(92.941176%,10.980392%,14.117647%);fill-opacity:1;" d="M 33.136719 62.578125 L 29.585938 59.140625 L 25.605469 63.117188 L 25.605469 64.515625 L 26.679688 63.441406 L 29.476562 66.234375 L 28.402344 67.3125 L 29.046875 67.957031 L 34.640625 62.363281 L 34.640625 61.074219 Z M 33.136719 62.578125 "/>
<path style=" stroke:none;fill-rule:nonzero;fill:rgb(92.941176%,10.980392%,14.117647%);fill-opacity:1;" d="M 29.15625 54.300781 C 30.339844 54.300781 31.308594 55.269531 31.308594 56.449219 C 31.308594 57.632812 30.339844 58.601562 29.15625 58.601562 C 27.972656 58.601562 27.003906 57.632812 27.003906 56.449219 C 26.894531 55.269531 27.863281 54.300781 29.15625 54.300781 Z M 29.15625 54.300781 "/>
<path style=" stroke:none;fill-rule:nonzero;fill:rgb(0%,35.686275%,63.529412%);fill-opacity:1;" d="M 16.890625 58.386719 L 23.128906 58.386719 L 23.128906 59.785156 L 22.054688 59.785156 L 22.054688 64.085938 L 25.605469 62.042969 L 25.605469 65.699219 L 16.890625 65.699219 L 16.890625 64.300781 L 17.964844 64.300781 L 17.964844 59.785156 L 16.890625 59.785156 Z M 16.890625 58.386719 "/>
<path style=" stroke:none;fill-rule:nonzero;fill:rgb(92.941176%,10.980392%,14.117647%);fill-opacity:1;" d="M 108.015625 82.367188 L 67.347656 82.367188 L 67.347656 41.71875 L 107.90625 41.71875 L 107.90625 82.367188 Z M 65.519531 39.996094 L 65.519531 84.195312 L 109.734375 84.195312 L 109.734375 39.996094 Z M 65.519531 39.996094 "/>
<path style=" stroke:none;fill-rule:nonzero;fill:rgb(92.941176%,10.980392%,14.117647%);fill-opacity:1;" d="M 87.574219 57.3125 L 79.503906 57.3125 L 79.503906 65.375 L 87.574219 65.375 Z M 87.574219 57.3125 "/>
<path style=" stroke:none;fill-rule:nonzero;fill:rgb(92.941176%,10.980392%,14.117647%);fill-opacity:1;" d="M 88.757812 57.3125 L 88.757812 65.375 L 96.933594 65.375 Z M 88.757812 57.3125 "/>
<path style=" stroke:none;fill-rule:nonzero;fill:rgb(92.941176%,10.980392%,14.117647%);fill-opacity:1;" d="M 87.574219 47.957031 L 79.503906 47.957031 L 79.503906 56.019531 L 87.574219 56.019531 Z M 87.574219 47.957031 "/>
<path style=" stroke:none;fill-rule:nonzero;fill:rgb(92.941176%,10.980392%,14.117647%);fill-opacity:1;" d="M 88.757812 47.957031 L 88.757812 56.128906 L 96.933594 47.957031 Z M 88.757812 47.957031 "/>
<path style=" stroke:none;fill-rule:nonzero;fill:rgb(92.941176%,10.980392%,14.117647%);fill-opacity:1;" d="M 75.738281 70.105469 L 74.234375 70.105469 L 72.296875 72.796875 L 72.296875 70.105469 L 71.003906 70.105469 L 71.003906 76.023438 L 72.296875 76.023438 L 72.296875 73.332031 L 74.234375 76.023438 L 75.738281 76.023438 L 73.480469 73.011719 Z M 75.738281 70.105469 "/>
<path style=" stroke:none;fill-rule:nonzero;fill:rgb(92.941176%,10.980392%,14.117647%);fill-opacity:1;" d="M 83.269531 74.625 C 83.164062 74.839844 82.839844 75.054688 82.410156 75.054688 C 81.980469 75.054688 81.65625 74.730469 81.65625 74.195312 L 81.65625 72.042969 L 80.472656 72.042969 L 80.472656 74.515625 C 80.472656 75.484375 81.011719 76.128906 81.980469 76.128906 C 82.625 76.128906 83.054688 75.804688 83.269531 75.589844 L 83.269531 76.023438 L 84.453125 76.023438 L 84.453125 72.148438 L 83.269531 72.148438 Z M 83.269531 74.625 "/>
<path style=" stroke:none;fill-rule:nonzero;fill:rgb(92.941176%,10.980392%,14.117647%);fill-opacity:1;" d="M 93.707031 74.730469 C 93.597656 74.945312 93.273438 75.054688 92.84375 75.054688 C 92.199219 75.054688 91.769531 74.625 91.769531 73.976562 C 91.769531 73.332031 92.199219 72.902344 92.84375 72.902344 C 93.273438 72.902344 93.492188 73.117188 93.707031 73.226562 Z M 93.707031 72.472656 C 93.492188 72.257812 93.058594 71.933594 92.523438 71.933594 C 91.445312 71.933594 90.691406 72.796875 90.691406 73.976562 C 90.691406 75.160156 91.445312 76.023438 92.523438 76.023438 C 93.167969 76.023438 93.492188 75.699219 93.707031 75.484375 L 93.707031 75.914062 L 94.890625 75.914062 L 94.890625 72.042969 L 93.707031 72.042969 Z M 93.707031 72.472656 "/>
<path style=" stroke:none;fill-rule:nonzero;fill:rgb(92.941176%,10.980392%,14.117647%);fill-opacity:1;" d="M 78.644531 74.730469 C 78.535156 74.945312 78.214844 75.054688 77.78125 75.054688 C 77.136719 75.054688 76.707031 74.625 76.707031 73.976562 C 76.707031 73.332031 77.136719 72.902344 77.78125 72.902344 C 78.214844 72.902344 78.429688 73.117188 78.644531 73.226562 Z M 78.644531 72.472656 C 78.429688 72.257812 78 71.933594 77.460938 71.933594 C 76.382812 71.933594 75.632812 72.796875 75.632812 73.976562 C 75.632812 75.160156 76.382812 76.023438 77.460938 76.023438 C 78.105469 76.023438 78.429688 75.699219 78.644531 75.484375 L 78.644531 75.914062 L 79.828125 75.914062 L 79.828125 72.042969 L 78.644531 72.042969 Z M 78.644531 72.472656 "/>
<path style=" stroke:none;fill-rule:nonzero;fill:rgb(92.941176%,10.980392%,14.117647%);fill-opacity:1;" d="M 103.28125 74.730469 C 103.171875 74.945312 102.851562 75.160156 102.417969 75.160156 C 101.773438 75.160156 101.34375 74.730469 101.34375 74.085938 C 101.34375 73.441406 101.773438 73.011719 102.417969 73.011719 C 102.851562 73.011719 103.171875 73.226562 103.28125 73.441406 Z M 103.28125 70.105469 L 103.28125 72.472656 C 103.066406 72.257812 102.636719 71.933594 101.988281 71.933594 C 100.914062 71.933594 100.160156 72.796875 100.160156 73.976562 C 100.160156 75.160156 100.914062 76.023438 101.988281 76.023438 C 102.636719 76.023438 103.066406 75.699219 103.28125 75.484375 L 103.28125 75.914062 L 104.355469 75.914062 L 104.355469 70 L 103.28125 70 Z M 103.28125 70.105469 "/>
<path style=" stroke:none;fill-rule:nonzero;fill:rgb(92.941176%,10.980392%,14.117647%);fill-opacity:1;" d="M 98.007812 72.042969 C 97.363281 72.042969 96.933594 72.367188 96.71875 72.582031 L 96.71875 72.148438 L 95.535156 72.148438 L 95.535156 76.023438 L 96.824219 76.023438 L 96.824219 73.441406 C 96.933594 73.226562 97.253906 73.011719 97.6875 73.011719 C 98.117188 73.011719 98.4375 73.332031 98.4375 73.871094 L 98.4375 76.023438 L 99.621094 76.023438 L 99.621094 73.65625 C 99.515625 72.6875 98.976562 72.042969 98.007812 72.042969 Z M 98.007812 72.042969 "/>
<path style=" stroke:none;fill-rule:nonzero;fill:rgb(92.941176%,10.980392%,14.117647%);fill-opacity:1;" d="M 87.464844 70.96875 C 87.894531 70.96875 88.109375 71.183594 88.109375 71.183594 L 88.328125 70.324219 C 88.328125 70.324219 88.003906 70.105469 87.25 70.105469 C 86.28125 70.105469 85.746094 70.644531 85.746094 71.71875 L 85.746094 72.148438 L 85.207031 72.148438 L 85.207031 73.117188 L 85.746094 73.117188 L 85.746094 76.128906 L 86.925781 76.128906 L 86.925781 73.117188 L 88.21875 73.117188 L 88.21875 72.148438 L 86.925781 72.148438 L 86.925781 71.828125 C 86.820312 71.289062 87.035156 70.96875 87.464844 70.96875 Z M 87.464844 70.96875 "/>
<path style=" stroke:none;fill-rule:nonzero;fill:rgb(92.941176%,10.980392%,14.117647%);fill-opacity:1;" d="M 88.757812 76.023438 L 89.941406 76.023438 L 89.941406 70.105469 L 88.757812 70.105469 Z M 88.757812 76.023438 "/>
<path style=" stroke:none;fill-rule:nonzero;fill:rgb(0%,27.058824%,31.372549%);fill-opacity:1;" d="M 65.519531 93.335938 L 109.734375 93.335938 L 109.734375 137.53125 L 65.519531 137.53125 Z M 65.519531 93.335938 "/>
<path style=" stroke:none;fill-rule:nonzero;fill:rgb(61.176471%,79.607843%,23.137255%);fill-opacity:1;" d="M 93.167969 109.035156 C 90.800781 109.035156 88.972656 110.96875 88.972656 113.226562 L 88.972656 115.164062 C 88.972656 115.378906 89.1875 115.59375 89.402344 115.59375 C 89.617188 115.59375 89.832031 115.378906 89.832031 115.164062 L 89.832031 113.226562 C 89.832031 111.398438 91.339844 110.003906 93.058594 110.003906 L 102.851562 110.003906 L 102.851562 117.636719 C 102.851562 119.464844 101.34375 120.863281 99.621094 120.863281 L 96.394531 120.863281 C 96.179688 120.863281 95.964844 121.078125 95.964844 121.292969 C 95.964844 121.507812 96.179688 121.832031 96.394531 121.832031 L 99.621094 121.832031 C 101.988281 121.832031 103.816406 119.894531 103.816406 117.636719 L 103.816406 109.035156 Z M 93.167969 109.035156 "/>
<path style=" stroke:none;fill-rule:nonzero;fill:rgb(100%,100%,100%);fill-opacity:1;" d="M 93.382812 116.992188 L 90.371094 116.992188 C 89.617188 116.992188 88.972656 117.636719 88.972656 118.390625 L 88.972656 120.433594 C 88.972656 121.183594 89.617188 121.832031 90.371094 121.832031 L 93.382812 121.832031 C 94.136719 121.832031 94.78125 121.183594 94.78125 120.433594 L 94.78125 118.390625 C 94.78125 117.53125 94.136719 116.992188 93.382812 116.992188 M 93.8125 120.324219 C 93.8125 120.539062 93.597656 120.753906 93.382812 120.753906 L 90.371094 120.753906 C 90.15625 120.753906 89.941406 120.539062 89.941406 120.324219 L 89.941406 118.28125 C 89.941406 118.066406 90.15625 117.851562 90.371094 117.851562 L 93.382812 117.851562 C 93.597656 117.851562 93.8125 118.066406 93.8125 118.28125 Z M 88.328125 117.421875 C 88.328125 117.636719 88.109375 117.851562 87.894531 117.851562 L 86.28125 117.851562 C 86.066406 117.851562 85.851562 118.066406 85.851562 118.28125 L 85.851562 121.183594 C 85.851562 121.402344 85.636719 121.617188 85.421875 121.617188 C 85.207031 121.617188 84.992188 121.402344 84.992188 121.183594 L 84.992188 118.28125 C 84.992188 117.53125 85.636719 116.882812 86.390625 116.882812 L 88.003906 116.882812 C 88.109375 116.992188 88.328125 117.097656 88.328125 117.421875 M 82.300781 116.992188 L 79.398438 116.992188 C 78.644531 116.992188 78 117.636719 78 118.390625 L 78 120.433594 C 78 121.183594 78.644531 121.832031 79.398438 121.832031 L 82.300781 121.832031 C 82.515625 121.832031 82.730469 121.617188 82.730469 121.402344 C 82.730469 121.183594 82.515625 120.96875 82.300781 120.96875 L 79.398438 120.96875 C 79.183594 120.96875 78.964844 120.753906 78.964844 120.539062 L 78.964844 120.003906 L 82.300781 120.003906 C 83.054688 120.003906 83.699219 119.355469 83.699219 118.605469 C 83.699219 117.53125 83.054688 116.992188 82.300781 116.992188 M 82.300781 118.820312 L 78.964844 118.820312 L 78.964844 118.390625 C 78.964844 118.175781 79.183594 117.960938 79.398438 117.960938 L 82.300781 117.960938 C 82.515625 117.960938 82.730469 118.175781 82.730469 118.390625 C 82.730469 118.605469 82.515625 118.820312 82.300781 118.820312 M 77.136719 121.292969 C 77.136719 121.507812 76.921875 121.722656 76.707031 121.722656 L 71.972656 121.722656 C 71.757812 121.722656 71.542969 121.617188 71.542969 121.402344 C 71.4375 121.183594 71.542969 120.96875 71.652344 120.863281 L 75.417969 117.851562 L 71.972656 117.851562 C 71.757812 117.851562 71.542969 117.636719 71.542969 117.421875 C 71.542969 117.207031 71.757812 116.992188 71.972656 116.992188 L 76.707031 116.992188 C 76.921875 116.992188 77.136719 117.097656 77.136719 117.3125 C 77.246094 117.53125 77.136719 117.746094 77.03125 117.851562 L 73.15625 120.863281 L 76.707031 120.863281 C 76.921875 120.863281 77.136719 121.078125 77.136719 121.292969 M 86.820312 109.035156 L 83.914062 109.035156 C 83.164062 109.035156 82.515625 109.679688 82.515625 110.433594 L 82.515625 112.476562 C 82.515625 113.226562 83.164062 113.875 83.914062 113.875 L 86.820312 113.875 C 87.035156 113.875 87.25 113.65625 87.25 113.441406 C 87.25 113.226562 87.035156 113.011719 86.820312 113.011719 L 83.914062 113.011719 C 83.699219 113.011719 83.484375 112.796875 83.484375 112.582031 L 83.484375 112.046875 L 86.820312 112.046875 C 87.574219 112.046875 88.21875 111.398438 88.21875 110.648438 C 88.328125 109.679688 87.679688 109.035156 86.820312 109.035156 M 86.820312 110.863281 L 83.484375 110.863281 L 83.484375 110.433594 C 83.484375 110.21875 83.699219 110.003906 83.914062 110.003906 L 86.820312 110.003906 C 87.035156 110.003906 87.25 110.21875 87.25 110.433594 C 87.359375 110.648438 87.144531 110.863281 86.820312 110.863281 M 81.871094 109.464844 C 81.871094 109.679688 81.65625 109.894531 81.441406 109.894531 L 79.828125 109.894531 C 79.613281 109.894531 79.398438 110.109375 79.398438 110.324219 L 79.398438 113.226562 C 79.398438 113.441406 79.183594 113.65625 78.964844 113.65625 C 78.75 113.65625 78.535156 113.441406 78.535156 113.226562 L 78.535156 110.324219 C 78.535156 109.570312 79.183594 108.925781 79.933594 108.925781 L 81.546875 108.925781 C 81.65625 109.035156 81.871094 109.25 81.871094 109.464844 M 71.867188 115.59375 C 72.082031 115.59375 72.296875 115.378906 72.296875 115.164062 L 72.296875 113.875 L 75.632812 113.875 C 76.382812 113.875 77.03125 113.226562 77.03125 112.476562 L 77.03125 110.433594 C 77.03125 109.679688 76.382812 109.035156 75.632812 109.035156 L 72.726562 109.035156 C 71.972656 109.035156 71.328125 109.679688 71.328125 110.433594 L 71.328125 115.164062 C 71.328125 115.378906 71.542969 115.59375 71.867188 115.59375 M 72.296875 110.433594 C 72.296875 110.21875 72.511719 110.003906 72.726562 110.003906 L 75.632812 110.003906 C 75.847656 110.003906 76.0625 110.21875 76.0625 110.433594 L 76.0625 112.476562 C 76.0625 112.691406 75.847656 112.90625 75.632812 112.90625 L 72.296875 112.90625 Z M 72.296875 110.433594 "/>
<path style=" stroke:none;fill-rule:nonzero;fill:rgb(100%,100%,100%);fill-opacity:1;" d="M 16.351562 114.410156 L 52.285156 114.410156 L 52.285156 115.164062 L 16.351562 115.164062 Z M 16.351562 114.410156 "/>
<path style=" stroke:none;fill-rule:nonzero;fill:rgb(100%,100%,100%);fill-opacity:1;" d="M 33.890625 113.335938 L 34.425781 110.324219 L 34.964844 113.335938 L 36.472656 113.335938 L 37.871094 108.390625 L 36.363281 108.390625 L 35.71875 111.507812 L 35.179688 108.390625 L 33.78125 108.390625 L 33.242188 111.507812 L 32.597656 108.390625 L 31.089844 108.390625 L 32.492188 113.335938 Z M 33.890625 113.335938 "/>
<path style=" stroke:none;fill-rule:nonzero;fill:rgb(100%,100%,100%);fill-opacity:1;" d="M 39.699219 110.109375 L 40.128906 111.613281 L 39.160156 111.613281 Z M 38.730469 113.335938 L 38.945312 112.582031 L 40.558594 112.582031 L 40.773438 113.335938 L 42.386719 113.335938 L 40.558594 108.390625 L 39.054688 108.390625 L 37.222656 113.335938 Z M 38.730469 113.335938 "/>
<path style=" stroke:none;fill-rule:nonzero;fill:rgb(100%,100%,100%);fill-opacity:1;" d="M 44.21875 109.570312 L 44.96875 109.570312 C 45.507812 109.570312 45.722656 109.785156 45.722656 110.109375 C 45.722656 110.539062 45.292969 110.648438 45.078125 110.648438 L 44.324219 110.648438 L 44.324219 109.570312 Z M 44.21875 111.613281 L 45.078125 111.613281 C 45.722656 111.613281 45.722656 112.152344 45.722656 112.582031 C 45.722656 112.796875 45.722656 113.121094 45.832031 113.335938 L 47.335938 113.335938 C 47.230469 113.121094 47.230469 112.476562 47.121094 112.261719 C 47.015625 111.613281 46.800781 111.183594 46.367188 110.96875 C 46.90625 110.753906 47.121094 110.21875 47.121094 109.679688 C 47.121094 108.710938 46.367188 108.28125 45.507812 108.28125 L 42.601562 108.28125 L 42.601562 113.226562 L 44.109375 113.226562 L 44.109375 111.613281 Z M 44.21875 111.613281 "/>
<path style=" stroke:none;fill-rule:nonzero;fill:rgb(100%,100%,100%);fill-opacity:1;" d="M 49.8125 112.152344 L 52.179688 109.570312 L 52.179688 108.390625 L 47.980469 108.390625 L 47.980469 109.679688 L 50.132812 109.679688 L 47.875 112.152344 L 47.875 113.335938 L 52.285156 113.335938 L 52.285156 112.152344 Z M 49.8125 112.152344 "/>
<path style=" stroke:none;fill-rule:nonzero;fill:rgb(100%,100%,100%);fill-opacity:1;" d="M 18.613281 112.367188 C 18.289062 112.367188 17.964844 112.261719 17.859375 112.046875 C 17.859375 111.9375 17.75 111.828125 17.75 111.722656 L 16.246094 111.722656 C 16.246094 113.335938 17.859375 113.550781 18.398438 113.550781 C 19.472656 113.550781 20.65625 113.121094 20.65625 111.828125 C 20.65625 110.96875 20.011719 110.539062 19.257812 110.433594 C 18.503906 110.21875 17.859375 110.109375 17.859375 109.785156 C 17.859375 109.464844 18.183594 109.464844 18.398438 109.464844 C 18.503906 109.464844 18.71875 109.464844 18.828125 109.570312 C 18.933594 109.679688 19.042969 109.785156 19.042969 110.003906 L 20.441406 110.003906 C 20.441406 108.820312 19.472656 108.390625 18.398438 108.390625 C 17.320312 108.390625 16.351562 108.925781 16.351562 110.003906 C 16.351562 110.96875 17.214844 111.183594 18.074219 111.398438 C 18.933594 111.613281 19.148438 111.722656 19.148438 111.9375 C 19.257812 112.261719 18.933594 112.367188 18.613281 112.367188 "/>
<path style=" stroke:none;fill-rule:nonzero;fill:rgb(100%,100%,100%);fill-opacity:1;" d="M 27.757812 111.398438 L 29.15625 111.398438 L 29.15625 113.335938 L 30.769531 113.335938 L 30.769531 108.390625 L 29.15625 108.390625 L 29.15625 110.109375 L 27.757812 110.109375 L 27.757812 108.390625 L 26.25 108.390625 L 26.25 113.335938 L 27.757812 113.335938 Z M 27.757812 111.398438 "/>
<path style=" stroke:none;fill-rule:nonzero;fill:rgb(100%,100%,100%);fill-opacity:1;" d="M 23.5625 113.441406 C 25.066406 113.441406 25.820312 112.367188 25.820312 111.398438 L 24.3125 111.398438 C 24.207031 111.828125 23.992188 112.261719 23.453125 112.261719 C 22.699219 112.261719 22.484375 111.613281 22.484375 110.863281 C 22.484375 110.21875 22.699219 109.464844 23.453125 109.464844 C 24.097656 109.464844 24.207031 110.003906 24.207031 110.21875 L 25.820312 110.21875 C 25.710938 108.925781 24.960938 108.28125 23.5625 108.28125 C 22.054688 108.28125 21.085938 109.355469 21.085938 110.863281 C 20.980469 112.367188 21.945312 113.441406 23.5625 113.441406 "/>
<path style=" stroke:none;fill-rule:nonzero;fill:rgb(100%,100%,100%);fill-opacity:1;" d="M 18.613281 117.53125 C 19.148438 117.53125 19.582031 117.636719 19.902344 117.960938 C 20.226562 118.28125 20.332031 118.605469 20.332031 119.140625 C 20.332031 120.21875 19.796875 120.863281 18.613281 120.863281 L 17.535156 120.863281 L 17.535156 122.476562 L 16.246094 122.476562 L 16.246094 117.53125 Z M 18.503906 119.789062 C 18.933594 119.789062 19.148438 119.574219 19.148438 119.140625 C 19.148438 118.925781 19.042969 118.710938 18.933594 118.605469 C 18.828125 118.496094 18.613281 118.496094 18.503906 118.496094 L 17.644531 118.496094 L 17.644531 119.789062 Z M 18.503906 119.789062 "/>
<path style=" stroke:none;fill-rule:nonzero;fill:rgb(100%,100%,100%);fill-opacity:1;" d="M 23.023438 118.820312 C 23.128906 118.820312 23.238281 118.820312 23.34375 118.820312 L 23.34375 119.894531 C 23.128906 119.894531 23.023438 119.789062 22.914062 119.789062 C 22.699219 119.789062 22.484375 119.894531 22.269531 120.003906 C 22.054688 120.109375 22.054688 120.324219 22.054688 120.539062 L 22.054688 122.261719 L 20.871094 122.261719 L 20.871094 118.710938 L 21.945312 118.710938 L 21.945312 119.355469 C 22.054688 119.140625 22.164062 118.925781 22.378906 118.820312 C 22.59375 118.820312 22.808594 118.820312 23.023438 118.820312 Z M 23.023438 118.820312 "/>
<path style=" stroke:none;fill-rule:nonzero;fill:rgb(100%,100%,100%);fill-opacity:1;" d="M 25.28125 118.710938 C 25.820312 118.710938 26.25 118.925781 26.574219 119.25 C 26.894531 119.574219 27.109375 120.003906 27.109375 120.648438 C 27.109375 121.183594 26.894531 121.617188 26.574219 121.9375 C 26.25 122.261719 25.820312 122.476562 25.175781 122.476562 C 24.636719 122.476562 24.207031 122.261719 23.882812 121.9375 C 23.5625 121.617188 23.34375 121.183594 23.34375 120.648438 C 23.34375 120.109375 23.5625 119.679688 23.882812 119.355469 C 24.3125 118.925781 24.746094 118.710938 25.28125 118.710938 Z M 24.636719 120.648438 C 24.636719 120.96875 24.746094 121.183594 24.851562 121.402344 C 24.960938 121.617188 25.175781 121.617188 25.390625 121.617188 C 25.605469 121.617188 25.820312 121.507812 25.925781 121.292969 C 26.035156 121.078125 26.144531 120.863281 26.144531 120.539062 C 26.144531 120.21875 26.035156 120.003906 25.925781 119.789062 C 25.820312 119.574219 25.605469 119.574219 25.390625 119.574219 C 25.175781 119.574219 24.960938 119.679688 24.851562 119.789062 C 24.636719 120.109375 24.636719 120.324219 24.636719 120.648438 Z M 24.636719 120.648438 "/>
<path style=" stroke:none;fill-rule:nonzero;fill:rgb(100%,100%,100%);fill-opacity:1;" d="M 31.199219 117.53125 L 31.199219 122.367188 L 30.125 122.367188 L 30.125 121.9375 C 29.910156 122.261719 29.585938 122.476562 29.15625 122.476562 C 28.726562 122.476562 28.292969 122.261719 27.972656 121.9375 C 27.648438 121.617188 27.542969 121.078125 27.542969 120.539062 C 27.542969 120.003906 27.648438 119.574219 27.972656 119.25 C 28.292969 118.925781 28.617188 118.710938 29.046875 118.710938 C 29.476562 118.710938 29.800781 118.925781 30.015625 119.25 L 30.015625 117.53125 Z M 28.726562 120.539062 C 28.726562 120.863281 28.832031 121.078125 28.941406 121.292969 C 29.046875 121.507812 29.261719 121.617188 29.476562 121.617188 C 29.910156 121.617188 30.125 121.292969 30.125 120.648438 C 30.125 120.324219 30.015625 120.109375 29.910156 119.894531 C 29.800781 119.679688 29.585938 119.574219 29.371094 119.574219 C 29.15625 119.574219 28.941406 119.679688 28.832031 119.789062 C 28.726562 120.109375 28.726562 120.324219 28.726562 120.539062 Z M 28.726562 120.539062 "/>
<path style=" stroke:none;fill-rule:nonzero;fill:rgb(100%,100%,100%);fill-opacity:1;" d="M 33.027344 118.820312 L 33.027344 120.863281 C 33.027344 121.292969 33.242188 121.507812 33.566406 121.507812 C 33.78125 121.507812 33.890625 121.402344 33.996094 121.292969 C 34.105469 121.183594 34.210938 120.96875 34.210938 120.753906 L 34.210938 118.820312 L 35.394531 118.820312 L 35.394531 122.367188 L 34.320312 122.367188 L 34.320312 121.832031 C 34.210938 122.046875 33.996094 122.152344 33.890625 122.261719 C 33.671875 122.367188 33.457031 122.367188 33.242188 122.367188 C 32.8125 122.367188 32.492188 122.261719 32.273438 122.046875 C 32.058594 121.832031 31.953125 121.402344 31.953125 120.96875 L 31.953125 118.820312 Z M 33.027344 118.820312 "/>
<path style=" stroke:none;fill-rule:nonzero;fill:rgb(100%,100%,100%);fill-opacity:1;" d="M 37.222656 117.53125 L 37.222656 120.003906 L 38.300781 118.820312 L 39.589844 118.820312 L 38.300781 120.109375 L 39.804688 122.261719 L 38.40625 122.261719 L 37.546875 120.863281 L 37.222656 121.183594 L 37.222656 122.367188 L 36.039062 122.367188 L 36.039062 117.53125 Z M 37.222656 117.53125 "/>
<path style=" stroke:none;fill-rule:nonzero;fill:rgb(100%,100%,100%);fill-opacity:1;" d="M 41.636719 117.746094 L 41.636719 118.820312 L 42.386719 118.820312 L 42.386719 119.574219 L 41.636719 119.574219 L 41.636719 121.183594 C 41.636719 121.292969 41.636719 121.402344 41.742188 121.402344 C 41.851562 121.402344 41.957031 121.507812 42.066406 121.507812 C 42.171875 121.507812 42.28125 121.507812 42.386719 121.507812 L 42.386719 122.367188 C 42.171875 122.367188 41.957031 122.367188 41.742188 122.367188 C 41.417969 122.367188 41.203125 122.367188 40.988281 122.261719 C 40.773438 122.152344 40.667969 122.046875 40.667969 121.832031 C 40.558594 121.617188 40.558594 121.402344 40.558594 121.183594 L 40.558594 119.574219 L 39.804688 119.574219 L 39.804688 118.820312 L 40.34375 118.820312 L 40.34375 117.746094 Z M 41.636719 117.746094 "/>
<path style=" stroke:none;fill-rule:nonzero;fill:rgb(100%,100%,100%);fill-opacity:1;" d="M 44 117.53125 L 44 118.390625 L 42.816406 118.390625 L 42.816406 117.53125 Z M 44 118.820312 L 44 122.367188 L 42.816406 122.367188 L 42.816406 118.820312 Z M 44 118.820312 "/>
<path style=" stroke:none;fill-rule:nonzero;fill:rgb(100%,100%,100%);fill-opacity:1;" d="M 46.367188 118.710938 C 46.90625 118.710938 47.335938 118.925781 47.660156 119.25 C 47.980469 119.574219 48.199219 120.003906 48.199219 120.648438 C 48.199219 121.183594 47.980469 121.617188 47.660156 121.9375 C 47.335938 122.261719 46.90625 122.476562 46.261719 122.476562 C 45.722656 122.476562 45.292969 122.261719 44.96875 121.9375 C 44.648438 121.617188 44.433594 121.183594 44.433594 120.648438 C 44.433594 120.109375 44.648438 119.679688 44.96875 119.355469 C 45.398438 118.925781 45.832031 118.710938 46.367188 118.710938 Z M 45.722656 120.648438 C 45.722656 120.96875 45.832031 121.183594 45.9375 121.402344 C 46.046875 121.617188 46.261719 121.617188 46.476562 121.617188 C 46.691406 121.617188 46.90625 121.507812 47.015625 121.292969 C 47.121094 121.078125 47.230469 120.863281 47.230469 120.539062 C 47.230469 120.21875 47.121094 120.003906 47.015625 119.789062 C 46.90625 119.574219 46.691406 119.574219 46.476562 119.574219 C 46.261719 119.574219 46.046875 119.679688 45.9375 119.789062 C 45.722656 120.109375 45.722656 120.324219 45.722656 120.648438 Z M 45.722656 120.648438 "/>
<path style=" stroke:none;fill-rule:nonzero;fill:rgb(100%,100%,100%);fill-opacity:1;" d="M 50.996094 118.710938 C 51.855469 118.710938 52.285156 119.140625 52.285156 120.003906 L 52.285156 122.261719 L 51.101562 122.261719 L 51.101562 120.21875 C 51.101562 119.789062 50.886719 119.574219 50.5625 119.574219 C 50.347656 119.574219 50.242188 119.679688 50.132812 119.789062 C 50.027344 119.894531 50.027344 120.109375 50.027344 120.324219 L 50.027344 122.261719 L 48.84375 122.261719 L 48.84375 118.710938 L 49.917969 118.710938 L 49.917969 119.25 C 50.027344 119.035156 50.242188 118.925781 50.457031 118.820312 C 50.5625 118.820312 50.78125 118.710938 50.996094 118.710938 Z M 50.996094 118.710938 "/>
<path style=" stroke:none;fill-rule:nonzero;fill:rgb(57.647059%,58.431373%,59.607843%);fill-opacity:1;" d="M 12.15625 28.707031 L 109.734375 28.707031 L 109.734375 30.859375 L 12.15625 30.859375 Z M 12.15625 28.707031 "/>
<path style=" stroke:none;fill-rule:nonzero;fill:rgb(57.647059%,58.431373%,59.607843%);fill-opacity:1;" d="M 60.03125 26.019531 L 61.429688 17.738281 L 62.9375 26.019531 L 66.917969 26.019531 L 70.683594 12.46875 L 66.59375 12.46875 L 64.980469 20.964844 L 64.871094 20.964844 L 63.257812 12.46875 L 59.601562 12.46875 L 57.988281 20.855469 L 56.375 12.46875 L 52.285156 12.46875 L 55.945312 26.019531 Z M 60.03125 26.019531 "/>
<path style=" stroke:none;fill-rule:nonzero;fill:rgb(57.647059%,58.431373%,59.607843%);fill-opacity:1;" d="M 72.835938 26.019531 L 73.480469 24.082031 L 77.78125 24.082031 L 78.320312 26.019531 L 82.625 26.019531 L 77.675781 12.578125 L 73.585938 12.578125 L 68.636719 26.019531 Z M 75.632812 16.984375 L 76.921875 21.179688 L 74.339844 21.179688 Z M 75.632812 16.984375 "/>
<path style=" stroke:none;fill-rule:nonzero;fill:rgb(57.647059%,58.431373%,59.607843%);fill-opacity:1;" d="M 88.003906 21.289062 L 90.261719 21.289062 C 91.875 21.289062 91.984375 22.578125 92.089844 23.867188 C 92.199219 24.511719 92.199219 25.265625 92.414062 25.910156 L 96.609375 25.910156 C 96.179688 25.265625 96.179688 23.652344 96.179688 23.007812 C 96.074219 21.289062 95.320312 20.105469 94.242188 19.675781 C 95.640625 19.136719 96.289062 17.738281 96.289062 16.339844 C 96.289062 13.761719 94.242188 12.46875 91.875 12.46875 L 83.914062 12.46875 L 83.914062 25.910156 L 88.109375 25.910156 L 88.109375 21.289062 Z M 88.003906 15.695312 L 89.941406 15.695312 C 91.554688 15.695312 91.984375 16.234375 91.984375 16.984375 C 91.984375 18.167969 90.910156 18.277344 90.15625 18.277344 L 88.003906 18.277344 Z M 88.003906 15.695312 "/>
<path style=" stroke:none;fill-rule:nonzero;fill:rgb(57.647059%,58.431373%,59.607843%);fill-opacity:1;" d="M 103.171875 22.578125 L 109.519531 15.480469 L 109.519531 12.46875 L 98.117188 12.46875 L 98.117188 16.019531 L 104.035156 16.019531 L 97.792969 22.792969 L 97.792969 26.019531 L 109.734375 26.019531 L 109.734375 22.578125 Z M 103.171875 22.578125 "/>
<path style=" stroke:none;fill-rule:nonzero;fill:rgb(57.647059%,58.431373%,59.607843%);fill-opacity:1;" d="M 18.503906 23.332031 C 17.75 23.332031 16.78125 23.117188 16.566406 22.363281 C 16.460938 22.148438 16.460938 21.824219 16.460938 21.503906 L 12.265625 21.503906 C 12.265625 25.804688 16.675781 26.339844 18.183594 26.339844 C 21.195312 26.339844 24.421875 25.160156 24.421875 21.71875 C 24.421875 19.242188 22.484375 18.382812 20.65625 17.847656 C 18.71875 17.308594 16.78125 17.09375 16.78125 16.125 C 16.78125 15.371094 17.75 15.265625 18.289062 15.265625 C 18.71875 15.265625 19.148438 15.371094 19.472656 15.589844 C 19.796875 15.804688 20.011719 16.125 20.011719 16.664062 L 23.992188 16.664062 C 23.667969 13.328125 21.085938 12.148438 18.183594 12.148438 C 15.382812 12.148438 12.695312 13.4375 12.695312 16.554688 C 12.695312 19.242188 15.167969 19.890625 17.214844 20.425781 C 19.582031 21.070312 20.117188 21.289062 20.117188 21.933594 C 20.226562 23.117188 19.148438 23.332031 18.503906 23.332031 Z M 18.503906 23.332031 "/>
<path style=" stroke:none;fill-rule:nonzero;fill:rgb(57.647059%,58.431373%,59.607843%);fill-opacity:1;" d="M 43.25 20.640625 L 47.121094 20.640625 L 47.121094 26.019531 L 51.316406 26.019531 L 51.316406 12.46875 L 47.121094 12.46875 L 47.121094 17.199219 L 43.25 17.199219 L 43.25 12.46875 L 39.054688 12.46875 L 39.054688 26.019531 L 43.25 26.019531 Z M 43.25 20.640625 "/>
<path style=" stroke:none;fill-rule:nonzero;fill:rgb(57.647059%,58.431373%,59.607843%);fill-opacity:1;" d="M 31.84375 26.339844 C 35.824219 26.339844 37.976562 23.4375 37.976562 20.75 L 33.890625 20.75 C 33.671875 22.039062 33.136719 23.007812 31.738281 23.007812 C 29.800781 23.007812 29.15625 21.070312 29.15625 19.351562 C 29.15625 17.523438 29.800781 15.695312 31.738281 15.695312 C 33.457031 15.695312 33.78125 17.199219 33.890625 17.632812 L 37.976562 17.632812 C 37.65625 14.296875 35.609375 12.363281 31.84375 12.253906 C 27.648438 12.253906 24.960938 15.050781 24.960938 19.351562 C 24.960938 23.222656 27.433594 26.339844 31.84375 26.339844 Z M 31.84375 26.339844 "/>
</g>
</svg>